<svg xmlns="http://www.w3.org/2000/svg" viewBox="0 0 128 128">
  <path fill="#0ACF83" d="M45.5 129c11.046 0 20-8.954 20-20V89H45.5C34.454 89 25.5 97.954 25.5 109s8.954 20 20 20z"/>
  <path fill="#A259FF" d="M25.5 69c0-11.046 8.954-20 20-20h20v40h-20c-11.046 0-20-8.954-20-20z"/>
  <path fill="#F24E1E" d="M25.5 29c0-11.046 8.954-20 20-20h20v40h-20c-11.046 0-20-8.954-20-20z"/>
  <path fill="#FF7262" d="M65.5 9h20c11.046 0 20 8.954 20 20s-8.954 20-20 20h-20V9z"/>
  <path fill="#1ABCFE" d="M105.5 69c0 11.046-8.954 20-20 20s-20-8.954-20-20 8.954-20 20-20 20 8.954 20 20z"/>
</svg>
