<svg xmlns="http://www.w3.org/2000/svg" viewBox="0 0 128 128">
  <path fill="#339933" d="M112.771 30.334L68.674 4.729c-2.781-1.584-6.402-1.584-9.205 0L14.901 30.334C12.031 31.985 10 35.088 10 38.407v51.142c0 3.319 2.084 6.423 4.954 8.083l11.775 6.688c5.628 2.772 7.617 2.772 10.178 2.772 8.333 0 13.093-5.039 13.093-13.828v-50.49c0-.713-.371-1.774-1.071-1.774h-5.623c-.712 0-2.306 1.061-2.306 1.774v50.49c0 3.896-3.058 7.348-8.986 7.348-1.288 0-2.3 0-5.127-1.384L16.356 93.49c-.375-.228-.869-.925-.869-1.414V40.012c0-.471.467-1.198.869-1.414l43.545-24.948c.404-.228 1.069-.228 1.473 0l43.438 24.948c.376.215.907.943.907 1.414v51.064c0 .471-.501 1.186-.907 1.414l-43.438 25.073c-.345.228-.981.228-1.473 0l-11.408-6.77c-.345-.202-.907-.345-1.225-.114-3.469 2.017-4.145 2.286-7.386 3.469-.834.305-2.084.768.468 2.202l14.936 8.823c1.38.791 2.986 1.265 4.602 1.265 1.653 0 3.297-.474 4.734-1.265l44.098-25.515c2.832-1.66 4.602-4.764 4.602-8.083V38.407c0-3.319-1.724-6.422-4.556-8.073z"/>
  <path fill="#339933" d="M80.232 72.658c0-10.178-6.878-12.915-21.369-14.835-14.693-1.959-16.159-2.957-16.159-6.395 0-2.849 1.268-6.64 12.165-6.64 9.735 0 13.328 2.098 14.794 8.671.136.554.593 1.01 1.166 1.01h5.319c.702 0 1.225-.59 1.225-1.225 0-.14-.02-.26-.047-.38-1.053-8.978-9.308-13.171-22.457-13.171-12.84 0-20.494 5.408-20.494 14.481 0 9.842 7.601 12.566 19.878 13.771 14.693 1.384 17.669 3.469 17.669 7.455 0 5.77-4.621 8.221-15.494 8.221-13.661 0-16.657-3.429-17.669-10.216-.114-.568-.669-.98-1.225-.98H32.48c-.669 0-1.225.465-1.225 1.136 0 7.117 3.876 15.639 24.455 15.639 14.633 0 24.522-5.765 24.522-15.742z"/>
</svg>
